# xmcd
#
# Track frame offsets:
# 150
# 8175
# 39600
# 67200
# 80625
# 99225
# 120975
# 145425
# 196575
# 225900
# 238275
# 255450
#
# Disc length: 4055 seconds
#
#
# Revision: 0
# Processed by: cddbd v1.5.2PL0 Copyright (c) Steve Scherf et al.
# Submitted via: KELLER's_Musik_Katalog 2006 
#
DISCID=990fd50c
DTITLE=THE JIMI HENDRIX EXPERIENCE - Live At Berkeley
DYEAR=2007
DGENRE=Bluesrock
TTITLE0=Introduction
TTITLE1=Pass It On (Straight Ahead)
TTITLE2=Hey Baby (New Rising Sun)
TTITLE3=Lover Man
TTITLE4=Stone Free
TTITLE5=Hey Joe
TTITLE6=I Don't Live Today
TTITLE7=Machine Gun
TTITLE8=Foxy Lady
TTITLE9=The Star Spangled Banner
TTITLE10=Purple Haze
TTITLE11=Voodoo Child (Slight Return)
EXTD=Label: Woodstock\nBestellnummer: WT 5102\nFirma: Records Verlagsges. mbH\nEVOE: Re. 1970\nBesetzung: Jimi Hendrix - guitar and vocals\nBilly Cox - bass\nMitch Mitchell - drums\n\n\n Für freedb bereitgestelt von:\n    KELLER'S Musik-Katalog 2007 2007
EXTT0=
EXTT1=
EXTT2=
EXTT3=
EXTT4=
EXTT5=
EXTT6=
EXTT7=
EXTT8=
EXTT9=
EXTT10=
EXTT11=
PLAYORDER=
